<svg width="120" height="110" viewBox="0 0 120 110" fill="none" xmlns="http://www.w3.org/2000/svg">
<path fill-rule="evenodd" clip-rule="evenodd" d="M107.958 80.4854C109.294 74.6708 110 66.5597 110 55C110 44.4627 109.414 36.7909 108.297 31.1121C105.599 34.6866 102.074 39.0474 97.9641 43.4232C93.7942 47.8624 88.9373 52.4072 83.6465 56.1675C90.653 62.7421 97.3637 69.4881 102.645 74.94C104.635 76.9939 106.426 78.8682 107.958 80.4854ZM103.661 90.5123C103.556 90.3999 103.448 90.2846 103.337 90.1664C101.438 88.1358 98.7219 85.262 95.4629 81.8979C89.6966 75.9456 82.2637 68.4925 74.6648 61.4674C70.0507 63.6151 65.1066 65 59.9999 65C54.8933 65 49.9492 63.6151 45.335 61.4674C37.7361 68.4925 30.3032 75.9456 24.5369 81.8979C21.2779 85.262 18.5618 88.1358 16.6624 90.1664C16.5518 90.2846 16.4441 90.3999 16.3391 90.5123C16.8651 91.1824 17.4214 91.779 18.0072 92.3159C20.5564 94.6527 24.5441 96.6719 31.4708 98.0414C38.4628 99.4238 47.6797 100 59.9999 100C72.3201 100 81.5371 99.4238 88.5291 98.0414C95.4557 96.6719 99.4434 94.6527 101.993 92.3159C102.578 91.779 103.135 91.1824 103.661 90.5123ZM12.0422 80.4854C10.7054 74.6708 9.99994 66.5597 9.99994 55C9.99994 44.4627 10.5861 36.7909 11.7024 31.1121C14.4013 34.6866 17.9254 39.0474 22.0358 43.4232C26.2057 47.8624 31.0626 52.4072 36.3534 56.1675C29.3469 62.7421 22.6361 69.4881 17.3545 74.94C15.3647 76.9939 13.574 78.8682 12.0422 80.4854ZM101.993 17.684C102.713 18.3443 103.389 19.0947 104.018 19.9613C103.384 20.8829 102.588 22.0126 101.648 23.296C98.9835 26.9352 95.1937 31.7665 90.6754 36.5767C86.1395 41.4055 80.9827 46.0909 75.5997 49.5401C70.1816 53.0117 64.8956 55 59.9999 55C55.1042 55 49.8182 53.0117 44.4002 49.5401C39.0172 46.0909 33.8603 41.4055 29.3245 36.5767C24.8061 31.7665 21.0164 26.9352 18.3517 23.296C17.4119 22.0126 16.616 20.8828 15.9814 19.9613C16.611 19.0947 17.2868 18.3443 18.0072 17.684C20.5564 15.3472 24.5441 13.328 31.4708 11.9585C38.4628 10.5761 47.6797 9.99997 59.9999 9.99997C72.3201 9.99997 81.5371 10.5761 88.5291 11.9585C95.4557 13.328 99.4434 15.3472 101.993 17.684ZM59.9999 110C110 110 120 100.833 120 55C120 9.16664 110 -3.05176e-05 59.9999 -3.05176e-05C9.99994 -3.05176e-05 -6.10352e-05 9.16664 -6.10352e-05 55C-6.10352e-05 100.833 9.99994 110 59.9999 110Z" fill="black"/>
</svg>
